<svg xmlns="http://www.w3.org/2000/svg" viewBox="0 0 800.69 391.72"><defs><style>.cls-1{fill:#fff;}</style></defs><g id="Layer_3" data-name="Layer 3"><path class="cls-1" d="M94.27,121.79H.79V1.73H85.52c0,11.67-1.2,18.35-8.41,27.1-4.63,5.66-9.26,12-14.92,20.24,2.75,3.6,5.32,7.72,8.24,11.49,8.91,12.69,16.8,25.73,22.12,41.16C95,108.41,94.27,119.73,94.27,121.79ZM21,21.8V63.48C30.12,58,53.45,30.55,55.5,21.8Zm49.74,79.92c-5.32-11-17.67-27.95-24.36-34.64C39.55,70.85,22.75,90.75,21,101.72Z"/><path class="cls-1" d="M192.4,1.56c.17.86.17,5.32.17,6.18-.51,16.29-3.43,41-9.6,66.89-3.6,15.09-9.26,30.87-14.06,44.25-1,2.91-2.06,2.91-5,2.74H131.34c-3.43.17-4.63-.34-6.17-3.09-7.55-13.38-12.86-29-16-43.9-4.8-23.16-6.17-41.17-6.52-64.84V1.56h20.41l.69,25c.86,16.81,2.23,30.87,6.34,47A124,124,0,0,0,139.92,101h13.72c2.92-8.06,6.52-18.53,8.75-26.41,4.63-16.13,6.69-31.39,8.06-48l1.71-25Zm.17,6.18"/><path class="cls-1" d="M294.58,121.79H273.15c.34-2.06.34-3.77.68-5.66,2.4-16.81,4.8-33.62,3.95-50.6-.17-3.77-1.38-6.34-4.46-8.23-4.63-2.91-11.84-7.37-16.64-10.46C248.62,42,240,37.06,231.3,32.09c-7.21,15.44-5.83,29.67-5.83,43.74a299,299,0,0,0,3.25,46H207.63C202,94,205.23,30.55,214,1.73c0,0,17.16-1,21.1.86,12.18,5.83,15.61,12.18,25.21,18.87,4.46,3.08,13.72,9.77,15.44,10.63,0-9.6-.52-21.27-1.2-30.36h21.09c.86,4.63,1.72,9.78,2.4,14.75,2.92,24.36,2.41,48.54.18,72.9-.86,9.26-1.89,18.69-2.92,28.29C295.1,118.88,294.93,120.25,294.58,121.79Z"/><path class="cls-1" d="M393.7,23.86c-17.84.17-44.94-.17-59.35,0,0,6.52,1.55,16.29,2.41,20.92,3.25,18,7.2,26.41,16.46,37.73,7.55,8.41,13.55,12,21.27,14.93.86.34,5.32,1.54,5.32,1.54V53h20.75c0,3.43.51,61.58-.34,68.27a119.9,119.9,0,0,1-22.13-.35c-14.24-2.05-28.47-9.09-38.08-19.55C322.69,82.51,318.75,63.65,314.29,36,312.4,24.54,312.4,4,312.57,2.59H393.7Z"/><path class="cls-1" d="M508.88,121.79h-23V103.61H442.16c-1.71,3.6-3.26,13.38-4.11,18H416.43c3.44-33.45,13.55-72.21,29-98.79H422.61V1.73h30.53c15.95,0,54.88-.17,56.25,0Zm-22.3-40.48c.35-19.89.52-39.27.86-59H474.06c-5,0-7.37,4.63-11,10.64-7.38,11.49-17.67,38.24-18.53,48.36Z"/><path class="cls-1" d="M527,1.73h20.75v99.14c5.66-.18,60,0,65.69,0v20.92H527.88Z"/><path class="cls-1" d="M656.69,43.91A43.82,43.82,0,1,1,613,0,43.91,43.91,0,0,1,656.69,43.91Zm-18.52,0A25.3,25.3,0,1,0,613,69.12,25.29,25.29,0,0,0,638.17,43.91Z"/><path class="cls-1" d="M755.76,88c3.6-3.43,12.35-26.92,14.23-33.61,5.15-18.35,6-23.67,9.44-43.22.17-1.2.85-7.89,1.2-9.09h20.06C800.35,13.4,787.83,65,778.06,93.83c-2.58,7.89-6,15.78-8.92,23.5-1,2.75-2.58,4.46-6,4a72.56,72.56,0,0,0-10.63.17,4.1,4.1,0,0,1-4.8-2.57c-3.09-5.66-6.52-11.5-9.78-17.16l-1.37-2.23c-2.92,2.75-14.75,15.61-17.84,19.56a5.17,5.17,0,0,1-5,2.23,84,84,0,0,0-9.43.17c-2.58.17-3.78-.86-4.81-3.09a392.11,392.11,0,0,1-29-80.1c-2.92-11.66-5-24-7.72-36.18h21.1c6.17,31,13.37,62.6,26.75,91.93,5.32-4.46,11.66-10.29,17.84-16.13-1.37-3.43-2.57-6.86-4-10.12-5.48-14.06-11-28.12-14.23-43-1.55-7-2.4-14.75-3.78-22.64,7.21,0,13.21.17,20.41.17C732.6,32.09,740.67,61.08,755.76,88Z"/><path class="cls-1" d="M192.64,277.6H171c1-12.35,1.71-32.25,1.89-43.91.17-11,.17-11.32.17-22.81H119.92c-.34,6.17-.34,17.49-.17,22.81.34,13.21.17,17.15.85,30.36.18,3.6.69,9.6,1,13.55H100.19c-6.86-40.14-2-101.71,5.49-120.06H127c-1.37,7.37-3.94,20.92-5.32,31.56,5.49.17,44.08.17,49.57.17-.51-4.29-.86-7.72-1.54-11.66-.69-4.81-1.55-7.55-2.4-12.35l-1.38-7.72H187C195.73,175.89,198.64,237.29,192.64,277.6Z"/><path class="cls-1" d="M235.34,218.94v38.25h43.22V277.6H213.73V157.54h64.83v21.1H235.51v20.58h51.63v19.72Z"/><path class="cls-1" d="M388.28,277.6h-23V259.42H321.56c-1.71,3.6-3.26,13.37-4.12,18H295.83c3.43-33.45,13.55-72.21,29-98.79H302v-21.1h30.53c15.95,0,54.88-.17,56.25,0ZM366,237.12c.35-19.89.52-39.28.86-59H353.46c-5,0-7.37,4.63-11,10.63-7.38,11.5-17.67,38.25-18.53,48.37Z"/><path class="cls-1" d="M454.07,249c10.46-16.29,20.75-60.37,24.35-91.41h21.1c0,5.49-7,44.42-10.29,57.46-5.84,23-18.36,48.88-23.5,59.51-1.2,2.4-2.75,3.09-5.49,3.09H450c-3.26,0-4.63-.52-6.35-3.09-7.2-10.63-20.58-39.79-25.55-59.17-2.4-9.43-11.66-50.08-11.66-57.8h21.26C430.74,189.1,445.32,234.55,454.07,249Z"/><path class="cls-1" d="M539.32,218.94v38.25h43.22V277.6H517.71V157.54h64.83v21.1h-43v20.58h51.63v19.72Z"/><path class="cls-1" d="M699.15,277.6H677.71c.34-2.06.34-3.78.69-5.66,2.4-16.81,4.8-33.62,3.94-50.6-.17-3.77-1.37-6.34-4.46-8.23-4.63-2.92-11.83-7.38-16.64-10.46-8.06-4.81-16.63-9.78-25.38-14.75-7.2,15.43-5.83,29.67-5.83,43.73a299.24,299.24,0,0,0,3.26,46h-21.1c-5.66-27.79-2.4-91.25,6.35-120.06,0,0,17.15-1,21.09.86,12.18,5.83,15.61,12.17,25.22,18.86,4.46,3.09,13.72,9.78,15.43,10.64,0-9.61-.51-21.27-1.2-30.36h21.1c.86,4.63,1.71,9.78,2.4,14.75,2.91,24.35,2.4,48.54.17,72.89-.86,9.26-1.89,18.7-2.92,28.3C699.66,274.68,699.49,276.05,699.15,277.6Z"/><path class="cls-1" d="M0,330.41H10.6V381c2.89-.09,30.65,0,33.54,0v10.68H.44Z"/><path class="cls-1" d="M64.18,330.44c-.13,0-.77,0-4.46,0l-9.27,0H30.88v8.88h8.29c-5.18,9.26-9.23,23.27-10.62,36.83l-.06.5h9.05l.23-1.29A37.11,37.11,0,0,1,39,369.85H54.79v6.87h9.59l.2-46.23Zm-16.9,12c1.16-1.94,2-3.35,3.49-3.35h4.6c-.06,3.62-.11,7.2-.16,10.8s-.09,7-.15,10.59H40.13c.58-4.07,4.2-13.41,6.88-17.59Z"/><path class="cls-1" d="M119.25,391.72h-11c.17-1.05.17-1.93.35-2.89,1.23-8.58,2.45-17.17,2-25.84a4.63,4.63,0,0,0-2.27-4.2c-2.37-1.49-6-3.77-8.5-5.34-4.11-2.46-8.49-5-13-7.54-3.68,7.89-3,15.16-3,22.34a152.13,152.13,0,0,0,1.67,23.47H74.84c-2.89-14.19-1.22-46.59,3.24-61.31,0,0,8.76-.52,10.78.44,6.21,3,8,6.22,12.87,9.63,2.28,1.58,7,5,7.88,5.43,0-4.9-.26-10.86-.61-15.5h10.77c.44,2.37.88,5,1.23,7.53a176.17,176.17,0,0,1,.09,37.23c-.44,4.73-1,9.54-1.49,14.45C119.51,390.23,119.42,390.93,119.25,391.72Z"/><path class="cls-1" d="M183.22,335.32c-.09.43-.27.78-.35,1.13a148.24,148.24,0,0,1-32.76,52.2,8.72,8.72,0,0,0-.79.88,6.12,6.12,0,0,1-5.25,2.1c-4.29-.17-8.59,0-13,0v-61c.87-.09,26.27-.09,38.27-.09h9.81c1.23,0,3-.18,3.59.79A4.94,4.94,0,0,1,183.22,335.32Zm-14.28,5.25h-26.8v38.19A134.17,134.17,0,0,0,158.69,361C163.6,354.32,167.71,345.74,168.94,340.57Z"/><path class="cls-1" d="M228.82,347.14c-5.87,5.34-8,12.26-10.42,19.09h-6.13a50.92,50.92,0,0,0-11.21-19c-6.75,14.27-9.29,29.16-10.78,44.4H180c.17-21.46,6.74-41.25,14.89-61,3.06-.08,6.13-.26,9.19-.26a2.72,2.72,0,0,1,1.75,1.23c1.32,2,2.54,4.11,3.77,6.22l4.47,7.35c.43.7,1,1.4,1.57,2.28,1-1.31,1.75-2.28,2.46-3.33,2.27-3.41,4.46-6.83,6.83-10.07,2.54-3.5,2.62-3.42,6.92-3.42h3.85c9.37,19.27,13.93,39.59,14.54,61.05H239.59c0-1-.08-1.75-.08-2.54A98.25,98.25,0,0,0,235.65,362a59.85,59.85,0,0,0-5.17-12.18C230,349.07,229.52,348.28,228.82,347.14Z"/><path class="cls-1" d="M302.86,391.72H291.13v-9.28H268.79c-.87,1.84-1.66,6.83-2.1,9.19h-11c1.75-17.08,6.92-36.87,14.8-50.45H258.81V330.41H274.4c8.14,0,28-.09,28.73,0Zm-11.38-20.67c.17-10.16.26-20.06.44-30.13h-6.84c-2.54,0-3.76,2.37-5.6,5.43-3.77,5.87-9,19.53-9.46,24.7Z"/><path class="cls-1" d="M343.59,365.36c-.88,1.14-1.93,2.27-3.07,3.68,3.16,3,5.08,4.73,7.89,7.79a70.86,70.86,0,0,1,10.95,14.89H348.41a32.06,32.06,0,0,0-2.81-3.33l-9.54-10.16a27.15,27.15,0,0,0-2.19-2.1c-2.63,1.49-5.78,3.42-8.41,5.17a9.41,9.41,0,0,1-1.58,1v9.46H313.29s-.09-16.29-.18-24.35v-37h46.33a49.05,49.05,0,0,1-.7,7.62,47.58,47.58,0,0,1-6.65,15.5C349.11,358,346.92,361,343.59,365.36Zm3.77-24.44h-24v29.34s1.57-.79,2.19-1.22A57,57,0,0,0,338.34,357C343.15,350.47,347.36,340.92,347.36,340.92Z"/><path class="cls-1" d="M420.33,391.72H409.65a90.08,90.08,0,0,0-12.18-23c-4.29-5.87-9.55-11.92-11.91-15.07-2,1.23-5.25,3.5-7.18,4.73-.79.53-.61,1.31-.61,2.1v23.74c0,2.36-.09,5-.18,7.53H367.08V330.41h10.6v17.52c.61-.7,10.68-7.71,12.26-8.76l11.65-8.76h13.22c-1.84,1.58-3.5,3.07-5.16,4.47s-3.33,2.8-4.91,4.29c-1.75,1.49-3.41,3-5.08,4.47l-5,4.46c.7.79,1.22,1.49,1.84,2.19,4.47,5.78,7.44,9.46,11.56,15.42A96.25,96.25,0,0,1,420.33,391.72Z"/><path class="cls-1" d="M504.66,335.26c-.09.44-.26.79-.35,1.14a148.41,148.41,0,0,1-32.76,52.2,8.84,8.84,0,0,0-.79.88,6.18,6.18,0,0,1-5.25,2.1c-4.29-.18-8.59,0-13.05,0V330.53c.87-.09,26.27-.09,38.27-.09h9.81c1.23,0,3-.17,3.59.79A5,5,0,0,1,504.66,335.26Zm-14.28,5.26h-26.8V378.7a133.49,133.49,0,0,0,16.55-17.78C485,354.27,489.16,345.68,490.38,340.52Z"/><path class="cls-1" d="M521.49,330.36v61.3h-10v-61.3Z"/><path class="cls-1" d="M529.75,391.66V381.24c10.07,0,18.74-.7,24.35-4.2,6.48-3.33,10.68-14.28,4.55-14.72-2.71-.61-11.82-.08-15.68-.7-7.62-1-11.3-4.64-12.43-12.26a19,19,0,0,1,1.31-12.09c1.4-3.5,3.94-5.25,7.71-6,5.25-1.05,11.3-.87,16.9-.87h16.38L573,340s-17.42.09-18.91,0a41.68,41.68,0,0,0-8.15.53c-4.64.7-6,3.85-5.52,7.18a4.23,4.23,0,0,0,2.81,3.68c4.11,1.49,6.39.87,14.53.87,2.81,0,5.61-.17,8.33,0a7.3,7.3,0,0,1,6,5.17,17.48,17.48,0,0,1,.26,9.72c-2.1,11.12-8.58,18.22-19,22C546,391.66,530.19,391.66,529.75,391.66Z"/><path class="cls-1" d="M607.75,391.66h-12c-.26-8.4,0-16.37,0-25v-25.4H580.33V330.36h42.92v10.86h-15.5Z"/><path class="cls-1" d="M662.34,365.3c-.87,1.14-1.92,2.28-3.06,3.68,3.15,3,5.08,4.73,7.88,7.8a70.18,70.18,0,0,1,11,14.88h-11a33.2,33.2,0,0,0-2.8-3.32l-9.55-10.16a22.85,22.85,0,0,0-2.19-2.1c-2.63,1.48-5.78,3.41-8.41,5.16a10,10,0,0,1-1.57,1v9.45H632s-.09-16.29-.18-24.34v-37H678.2a50.51,50.51,0,0,1-.7,7.62,47.48,47.48,0,0,1-6.66,15.5C667.86,357.94,665.67,360.92,662.34,365.3Zm3.77-24.43h-24v29.34A23.55,23.55,0,0,0,644.3,369a56.6,56.6,0,0,0,12.79-12.09C661.91,350.41,666.11,340.87,666.11,340.87Z"/><path class="cls-1" d="M696.28,330.36v61.3h-10v-61.3Z"/><path class="cls-1" d="M706.65,330.27h40.11V341H717a56.91,56.91,0,0,0,.17,7.27c1.05,9.55,3.59,16.2,11.56,24.52,5,5.17,10.07,7.27,15,7.89a37.86,37.86,0,0,0,5.34.17v10.69a43.09,43.09,0,0,1-11.82-1.23c-8.5-2.28-16.64-8.84-21.55-16.11a50.36,50.36,0,0,1-8.67-20,52.75,52.75,0,0,1-1-17C706,335.61,706.39,332,706.65,330.27Z"/><path class="cls-1" d="M783.93,391.66h-12c-.27-8.4,0-16.37,0-25v-25.4H756.51V330.36h42.92v10.86h-15.5Z"/></g></svg>